name rise35.5848peak51.9257fall54.8793.mot
datacolumns 19
datarows 36
range 23.69323600000000 23.75156900000000
endheader
time	ground_force1_vx	ground_force1_vy	ground_force1_vz	ground_force1_px	ground_force1_py	ground_force1_pz	ground_force2_vx	ground_force2_vy	ground_force2_vz	ground_force2_px	ground_force2_py	ground_force2_pz	ground_torque1_x	ground_torque1_y	ground_torque1_z	ground_torque2_x	ground_torque2_y	ground_torque2_z	
23.69323600000000	14.85918400000000	692.18759499999999	44.79981600000000	0.21864500000000	0.00000000000000	0.12171800000000	0.00000000000000	0.00000000000000	0.00000000000000	0.00000000000000	0.00000000000000	0.00000000000000	0.00000000000000	16.65875600000000	0.00000000000000	0.00000000000000	0.00000000000000	0.00000000000000	
23.69490200000000	14.41351800000000	692.95398799999998	44.76908300000000	0.21772900000000	0.00000000000000	0.12168500000000	0.00000000000000	0.00000000000000	0.00000000000000	0.00000000000000	0.00000000000000	0.00000000000000	0.00000000000000	16.71074400000000	0.00000000000000	0.00000000000000	0.00000000000000	0.00000000000000	
23.69656800000000	13.95388700000000	693.76494700000001	44.74414100000000	0.21678300000000	0.00000000000000	0.12165300000000	0.00000000000000	0.00000000000000	0.00000000000000	0.00000000000000	0.00000000000000	0.00000000000000	0.00000000000000	16.76782400000000	0.00000000000000	0.00000000000000	0.00000000000000	0.00000000000000	
23.69824100000000	13.48037200000000	694.62058500000001	44.72482700000000	0.21580900000000	0.00000000000000	0.12162200000000	0.00000000000000	0.00000000000000	0.00000000000000	0.00000000000000	0.00000000000000	0.00000000000000	0.00000000000000	16.82985400000000	0.00000000000000	0.00000000000000	0.00000000000000	0.00000000000000	
23.69990600000000	12.99311300000000	695.52105600000004	44.71098000000000	0.21480600000000	0.00000000000000	0.12159300000000	0.00000000000000	0.00000000000000	0.00000000000000	0.00000000000000	0.00000000000000	0.00000000000000	0.00000000000000	16.89668100000000	0.00000000000000	0.00000000000000	0.00000000000000	0.00000000000000	
23.70157300000000	12.49230700000000	696.46654999999998	44.70244600000000	0.21377500000000	0.00000000000000	0.12156500000000	0.00000000000000	0.00000000000000	0.00000000000000	0.00000000000000	0.00000000000000	0.00000000000000	0.00000000000000	16.96814700000000	0.00000000000000	0.00000000000000	0.00000000000000	0.00000000000000	
23.70324200000000	11.97820900000000	697.45728899999995	44.69907600000000	0.21271800000000	0.00000000000000	0.12153800000000	0.00000000000000	0.00000000000000	0.00000000000000	0.00000000000000	0.00000000000000	0.00000000000000	0.00000000000000	17.04408800000000	0.00000000000000	0.00000000000000	0.00000000000000	0.00000000000000	
23.70491700000000	11.45112600000000	698.49351999999999	44.70072800000000	0.21163400000000	0.00000000000000	0.12151200000000	0.00000000000000	0.00000000000000	0.00000000000000	0.00000000000000	0.00000000000000	0.00000000000000	0.00000000000000	17.12433300000000	0.00000000000000	0.00000000000000	0.00000000000000	0.00000000000000	
23.70657200000000	10.91142000000000	699.57551000000001	44.70726900000000	0.21052700000000	0.00000000000000	0.12148600000000	0.00000000000000	0.00000000000000	0.00000000000000	0.00000000000000	0.00000000000000	0.00000000000000	0.00000000000000	17.20870800000000	0.00000000000000	0.00000000000000	0.00000000000000	0.00000000000000	
23.70823500000000	10.35950300000000	700.70354199999997	44.71857600000000	0.20939600000000	0.00000000000000	0.12146200000000	0.00000000000000	0.00000000000000	0.00000000000000	0.00000000000000	0.00000000000000	0.00000000000000	0.00000000000000	17.29703500000000	0.00000000000000	0.00000000000000	0.00000000000000	0.00000000000000	
23.70990800000000	9.79583500000000	701.87790399999994	44.73453300000000	0.20824300000000	0.00000000000000	0.12143800000000	0.00000000000000	0.00000000000000	0.00000000000000	0.00000000000000	0.00000000000000	0.00000000000000	0.00000000000000	17.38912800000000	0.00000000000000	0.00000000000000	0.00000000000000	0.00000000000000	
23.71157400000000	9.22092000000000	703.09888599999999	44.75504000000000	0.20707000000000	0.00000000000000	0.12141500000000	0.00000000000000	0.00000000000000	0.00000000000000	0.00000000000000	0.00000000000000	0.00000000000000	0.00000000000000	17.48480200000000	0.00000000000000	0.00000000000000	0.00000000000000	0.00000000000000	
23.71324000000000	8.63530400000000	704.36677399999996	44.78000300000000	0.20587900000000	0.00000000000000	0.12139200000000	0.00000000000000	0.00000000000000	0.00000000000000	0.00000000000000	0.00000000000000	0.00000000000000	0.00000000000000	17.58386600000000	0.00000000000000	0.00000000000000	0.00000000000000	0.00000000000000	
23.71490600000000	8.03957300000000	705.68183799999997	44.80934700000000	0.20467100000000	0.00000000000000	0.12136900000000	0.00000000000000	0.00000000000000	0.00000000000000	0.00000000000000	0.00000000000000	0.00000000000000	0.00000000000000	17.68613000000000	0.00000000000000	0.00000000000000	0.00000000000000	0.00000000000000	
23.71657000000000	7.43434800000000	707.04433100000006	44.84300500000000	0.20344900000000	0.00000000000000	0.12134700000000	0.00000000000000	0.00000000000000	0.00000000000000	0.00000000000000	0.00000000000000	0.00000000000000	0.00000000000000	17.79139800000000	0.00000000000000	0.00000000000000	0.00000000000000	0.00000000000000	
23.71824100000000	6.82027900000000	708.45447600000000	44.88092700000000	0.20221300000000	0.00000000000000	0.12132500000000	0.00000000000000	0.00000000000000	0.00000000000000	0.00000000000000	0.00000000000000	0.00000000000000	0.00000000000000	17.89947600000000	0.00000000000000	0.00000000000000	0.00000000000000	0.00000000000000	
23.71990500000000	6.19804500000000	709.91246300000000	44.92307700000000	0.20096800000000	0.00000000000000	0.12130300000000	0.00000000000000	0.00000000000000	0.00000000000000	0.00000000000000	0.00000000000000	0.00000000000000	0.00000000000000	18.01016800000000	0.00000000000000	0.00000000000000	0.00000000000000	0.00000000000000	
23.72157500000000	5.56835000000000	711.41843900000003	44.96943400000000	0.19971300000000	0.00000000000000	0.12128100000000	0.00000000000000	0.00000000000000	0.00000000000000	0.00000000000000	0.00000000000000	0.00000000000000	0.00000000000000	18.12327700000000	0.00000000000000	0.00000000000000	0.00000000000000	0.00000000000000	
23.72323500000000	4.93191500000000	712.97250199999996	45.01999200000000	0.19845200000000	0.00000000000000	0.12125900000000	0.00000000000000	0.00000000000000	0.00000000000000	0.00000000000000	0.00000000000000	0.00000000000000	0.00000000000000	18.23860900000000	0.00000000000000	0.00000000000000	0.00000000000000	0.00000000000000	
23.72490100000000	4.28947800000000	714.57469400000002	45.07476300000000	0.19718600000000	0.00000000000000	0.12123700000000	0.00000000000000	0.00000000000000	0.00000000000000	0.00000000000000	0.00000000000000	0.00000000000000	0.00000000000000	18.35596700000000	0.00000000000000	0.00000000000000	0.00000000000000	0.00000000000000	
23.72656800000000	3.64178800000000	716.22499000000005	45.13377100000000	0.19591800000000	0.00000000000000	0.12121400000000	0.00000000000000	0.00000000000000	0.00000000000000	0.00000000000000	0.00000000000000	0.00000000000000	0.00000000000000	18.47515800000000	0.00000000000000	0.00000000000000	0.00000000000000	0.00000000000000	
23.72823400000000	2.98959900000000	717.92329600000005	45.19705900000000	0.19465000000000	0.00000000000000	0.12119100000000	0.00000000000000	0.00000000000000	0.00000000000000	0.00000000000000	0.00000000000000	0.00000000000000	0.00000000000000	18.59599000000000	0.00000000000000	0.00000000000000	0.00000000000000	0.00000000000000	
23.72990000000000	2.33367100000000	719.66943900000001	45.26468500000000	0.19338200000000	0.00000000000000	0.12116800000000	0.00000000000000	0.00000000000000	0.00000000000000	0.00000000000000	0.00000000000000	0.00000000000000	0.00000000000000	18.71827300000000	0.00000000000000	0.00000000000000	0.00000000000000	0.00000000000000	
23.73157400000000	1.67475900000000	721.46316100000001	45.33672500000000	0.19211900000000	0.00000000000000	0.12114400000000	0.00000000000000	0.00000000000000	0.00000000000000	0.00000000000000	0.00000000000000	0.00000000000000	0.00000000000000	18.84181900000000	0.00000000000000	0.00000000000000	0.00000000000000	0.00000000000000	
23.73323700000000	1.01361600000000	723.30411300000003	45.41326700000000	0.19086000000000	0.00000000000000	0.12111900000000	0.00000000000000	0.00000000000000	0.00000000000000	0.00000000000000	0.00000000000000	0.00000000000000	0.00000000000000	18.96644400000000	0.00000000000000	0.00000000000000	0.00000000000000	0.00000000000000	
23.73490500000000	0.35098400000000	725.19184700000005	45.49441600000000	0.18960800000000	0.00000000000000	0.12109400000000	0.00000000000000	0.00000000000000	0.00000000000000	0.00000000000000	0.00000000000000	0.00000000000000	0.00000000000000	19.09196600000000	0.00000000000000	0.00000000000000	0.00000000000000	0.00000000000000	
23.73657000000000	-0.31241100000000	727.12581000000000	45.58029400000000	0.18836500000000	0.00000000000000	0.12106800000000	0.00000000000000	0.00000000000000	0.00000000000000	0.00000000000000	0.00000000000000	0.00000000000000	0.00000000000000	19.21820700000000	0.00000000000000	0.00000000000000	0.00000000000000	0.00000000000000	
23.73823800000000	-0.97585700000000	729.10534299999995	45.67103300000000	0.18713100000000	0.00000000000000	0.12104200000000	0.00000000000000	0.00000000000000	0.00000000000000	0.00000000000000	0.00000000000000	0.00000000000000	0.00000000000000	19.34499400000000	0.00000000000000	0.00000000000000	0.00000000000000	0.00000000000000	
23.73990800000000	-1.63866300000000	731.12966700000004	45.76678200000000	0.18591000000000	0.00000000000000	0.12101500000000	0.00000000000000	0.00000000000000	0.00000000000000	0.00000000000000	0.00000000000000	0.00000000000000	0.00000000000000	19.47215800000000	0.00000000000000	0.00000000000000	0.00000000000000	0.00000000000000	
23.74157100000000	-2.30016400000000	733.19788800000003	45.86770000000000	0.18470100000000	0.00000000000000	0.12098600000000	0.00000000000000	0.00000000000000	0.00000000000000	0.00000000000000	0.00000000000000	0.00000000000000	0.00000000000000	19.59953300000000	0.00000000000000	0.00000000000000	0.00000000000000	0.00000000000000	
23.74323800000000	-2.95972300000000	735.30898600000000	45.97395900000000	0.18350500000000	0.00000000000000	0.12095800000000	0.00000000000000	0.00000000000000	0.00000000000000	0.00000000000000	0.00000000000000	0.00000000000000	0.00000000000000	19.72695900000000	0.00000000000000	0.00000000000000	0.00000000000000	0.00000000000000	
23.74490300000000	-3.61673200000000	737.46181000000001	46.08574100000000	0.18232500000000	0.00000000000000	0.12092800000000	0.00000000000000	0.00000000000000	0.00000000000000	0.00000000000000	0.00000000000000	0.00000000000000	0.00000000000000	19.85428200000000	0.00000000000000	0.00000000000000	0.00000000000000	0.00000000000000	
23.74656700000000	-4.27061700000000	739.65508199999999	46.20323600000000	0.18116000000000	0.00000000000000	0.12089800000000	0.00000000000000	0.00000000000000	0.00000000000000	0.00000000000000	0.00000000000000	0.00000000000000	0.00000000000000	19.98135300000000	0.00000000000000	0.00000000000000	0.00000000000000	0.00000000000000	
23.74824200000000	-4.92084000000000	741.88738599999999	46.32664200000000	0.18001200000000	0.00000000000000	0.12086700000000	0.00000000000000	0.00000000000000	0.00000000000000	0.00000000000000	0.00000000000000	0.00000000000000	0.00000000000000	20.10802700000000	0.00000000000000	0.00000000000000	0.00000000000000	0.00000000000000	
23.74990600000000	-5.56690200000000	744.15716899999995	46.45616500000000	0.17888100000000	0.00000000000000	0.12083600000000	0.00000000000000	0.00000000000000	0.00000000000000	0.00000000000000	0.00000000000000	0.00000000000000	0.00000000000000	20.23416500000000	0.00000000000000	0.00000000000000	0.00000000000000	0.00000000000000	
23.75156900000000	-6.20834200000000	746.46274200000005	46.59201100000000	0.17776600000000	0.00000000000000	0.12080300000000	0.00000000000000	0.00000000000000	0.00000000000000	0.00000000000000	0.00000000000000	0.00000000000000	0.00000000000000	20.35963700000000	0.00000000000000	0.00000000000000	0.00000000000000	0.00000000000000	
